<svg xmlns:xlink="http://www.w3.org/1999/xlink" xml:space="preserve" width="154.92mm" height="27.560001mm" version="1.1" style="clip-rule:evenodd;fill-rule:evenodd;image-rendering:optimizeQuality;shape-rendering:geometricPrecision;text-rendering:geometricPrecision" viewBox="0 0 15492 2756.0001" id="svg848" xmlns="http://www.w3.org/2000/svg"><metadata id="metadata852">image/svg+xml</metadata>
 <defs id="defs835">
  <style type="text/css" id="style833">
   
    .fil2 {fill:#104378}
    .fil0 {fill:#1A1A1A}
    .fil1 {fill:#2491EB}
   
  </style>
 </defs>
 <g id="Layer_x0020_1" transform="translate(-2754,-9122)">
  <metadata id="CorelCorpID_0Corel-Layer"></metadata>
  <g id="_393011184">
   <path class="fil0" d="m 6721,10485 c 54,0 95,-13 124,-38 29,-26 43,-60 43,-102 v -3 c 0,-48 -15,-83 -45,-107 -31,-23 -73,-35 -127,-35 h -217 v 285 z m -440,-483 h 454 c 126,0 222,34 289,101 57,57 86,133 86,227 v 3 c 0,81 -20,146 -59,197 -40,50 -91,88 -154,111 l 242,355 h -255 l -213,-318 h -3 -169 v 318 h -218 z m 1440,1010 c -133,0 -238,-37 -315,-111 -76,-74 -115,-184 -115,-331 v -568 h 219 v 563 c 0,81 19,142 57,183 38,42 90,62 157,62 68,0 120,-20 158,-59 38,-40 57,-100 57,-179 v -570 h 218 v 561 c 0,76 -10,142 -30,197 -21,56 -50,103 -88,140 -37,38 -83,66 -137,84 -54,19 -114,28 -181,28 z m 659,-1010 h 202 l 465,612 v -612 h 216 v 994 h -186 l -481,-632 v 632 h -216 z m 1045,0 h 234 l 206,673 223,-675 h 187 l 223,675 206,-673 h 229 l -340,1001 h -190 l -224,-650 -225,650 h -190 z m 2108,256 c -148,361 -159,391 -301,738 h -223 l 426,-1001 h 202 l 426,1001 h -229 c -136,-333 -157,-386 -301,-738 z m 963,346 -382,-602 h 255 l 237,399 242,-399 h 248 l -382,598 v 396 h -218 z m 1517,406 c -76,0 -150,-13 -223,-39 -73,-26 -139,-66 -198,-120 l 129,-154 c 45,37 92,66 140,88 47,21 100,32 156,32 46,0 81,-8 106,-25 25,-16 38,-39 38,-68 v -3 c 0,-14 -3,-27 -8,-38 -5,-11 -15,-21 -30,-30 -15,-10 -35,-19 -61,-29 -26,-9 -60,-19 -102,-30 -50,-12 -96,-26 -137,-41 -40,-15 -75,-34 -104,-56 -28,-22 -50,-50 -66,-83 -15,-33 -23,-74 -23,-123 v -3 c 0,-46 8,-87 25,-123 17,-36 41,-68 71,-94 31,-27 68,-47 110,-61 42,-15 89,-22 140,-22 73,0 140,11 201,33 61,22 117,53 168,94 l -113,164 c -45,-30 -88,-54 -131,-71 -42,-18 -85,-27 -128,-27 -42,0 -74,9 -95,25 -22,17 -32,37 -32,62 v 3 c 0,16 3,30 9,42 6,11 17,22 33,32 17,9 39,18 66,27 29,8 64,18 106,29 51,14 96,29 135,45 39,17 73,37 100,60 27,23 47,50 61,81 14,32 21,69 21,112 v 3 c 0,50 -9,93 -27,132 -18,38 -43,70 -75,96 -32,26 -70,46 -114,60 -45,13 -94,20 -148,20 z m 785,-806 h -302 v -202 h 823 v 202 h -302 v 792 h -219 z m 1127,54 c -143,350 -166,408 -301,738 h -223 l 426,-1001 h 202 l 426,1001 h -229 c -138,-339 -155,-382 -301,-738 z m 915,-54 h -303 v -202 h 824 v 202 h -303 v 792 h -218 z m 1043,806 c -76,0 -150,-13 -223,-39 -73,-26 -139,-66 -199,-120 l 129,-154 c 46,37 93,66 140,88 48,21 100,32 157,32 46,0 81,-8 106,-25 25,-16 38,-39 38,-68 v -3 c 0,-14 -3,-27 -8,-38 -5,-11 -15,-21 -30,-30 -15,-10 -35,-19 -61,-29 -26,-9 -60,-19 -102,-30 -50,-12 -96,-26 -137,-41 -41,-15 -75,-34 -104,-56 -28,-22 -50,-50 -66,-83 -16,-33 -23,-74 -23,-123 v -3 c 0,-46 8,-87 25,-123 17,-36 41,-68 71,-94 31,-27 67,-47 110,-61 42,-15 89,-22 140,-22 73,0 140,11 201,33 61,22 117,53 168,94 l -113,164 c -45,-30 -88,-54 -131,-71 -43,-18 -85,-27 -128,-27 -42,0 -74,9 -96,25 -21,17 -32,37 -32,62 v 3 c 0,16 4,30 10,42 6,11 17,22 33,32 16,9 38,18 66,27 28,8 64,18 106,29 51,14 96,29 135,45 39,17 73,37 99,60 27,23 48,50 62,81 13,32 20,69 20,112 v 3 c 0,50 -9,93 -26,132 -18,38 -43,70 -75,96 -32,26 -70,46 -115,60 -44,13 -93,20 -147,20 z" id="path838"></path>
   <path class="fil1" d="m 5665,9781 161,53 112,-96 -205,-14 z m 199,66 -136,116 -165,-8 -30,24 153,96 c 54,33 246,-112 288,-145 l 50,310 66,-54 32,-384 143,-118 c 27,-34 37,-59 36,-77 l -4,-15 c -20,-36 -108,-23 -155,17 l -155,133 z" id="path840"></path>
   <path class="fil2" d="m 3266,11354 v -280 c 156,26 365,10 486,-10 v 290 z m 2229,-1052 c 69,-58 130,-120 170,-180 -54,33 -108,65 -161,96 -7,4 -14,9 -21,13 -766,472 -1673,817 -2566,585 -45,-12 -90,-25 -136,-40 128,629 684,1102 1350,1102 761,0 1378,-617 1378,-1378 0,-67 -5,-133 -14,-198 z m -994,567 c 158,-66 320,-136 486,-237 v 722 h -102 -384 z m -618,173 c 155,-20 317,-60 487,-121 v 433 h -385 -51 -51 z" id="path842"></path>
   <path class="fil1" d="m 3266,10658 v -192 h 486 v 192 110 c 43,-4 87,-9 131,-16 v -111 -597 h 487 v 479 110 c 43,-14 87,-29 131,-44 v -112 -831 h 486 v 615 122 c 118,-59 238,-124 359,-197 36,-22 73,-44 110,-67 -11,-36 -22,-72 -36,-106 -196,-521 -699,-891 -1289,-891 -761,0 -1377,617 -1377,1378 0,12 0,23 0,35 1,40 4,80 8,119 60,21 121,40 183,56 105,27 212,47 321,58 v -62 z" id="path844"></path>
  </g>
 </g>
</svg>