<svg xmlns="http://www.w3.org/2000/svg" width="160" height="66.997" viewBox="0 0 160 66.997"><g transform="translate(6521 -3814)"><g transform="translate(-6521 3814)"><path d="M3288.886,12294.831a2.383,2.383,0,0,0,1.663-.525,1.845,1.845,0,0,0,.576-1.413v-.035a1.767,1.767,0,0,0-.61-1.459,2.594,2.594,0,0,0-1.685-.49h-2.9v3.923Zm-5.886-6.637h6.074a5.141,5.141,0,0,1,3.869,1.38,4.28,4.28,0,0,1,1.142,3.124v.046a4.391,4.391,0,0,1-.787,2.7,4.533,4.533,0,0,1-2.062,1.528l3.248,4.881h-3.414l-2.849-4.368h-2.295v4.368H3283Zm19.266,13.877a5.708,5.708,0,0,1-4.212-1.517,6.116,6.116,0,0,1-1.541-4.55v-7.811h2.926v7.731a3.745,3.745,0,0,0,.754,2.531,3.081,3.081,0,0,0,4.212.022,3.5,3.5,0,0,0,.765-2.463v-7.822h2.926v7.708a8.281,8.281,0,0,1-.41,2.714,5.251,5.251,0,0,1-1.164,1.928,4.732,4.732,0,0,1-1.851,1.151A7.262,7.262,0,0,1,3302.266,12302.071Zm8.813-13.877h2.694l6.219,8.415v-8.415h2.893v13.661h-2.494l-6.429-8.689v8.689h-2.882Zm13.967,0h3.126l2.76,9.248,2.982-9.294h2.5l2.982,9.294,2.749-9.248h3.059l-4.545,13.764h-2.538l-3-8.94-2.993,8.94h-2.55Zm28.189,3.512c-1.984,4.972-2.128,5.371-4.024,10.149h-2.982l5.7-13.764h2.694l5.7,13.764h-3.059C3355.44,12297.282,3355.163,12296.553,3353.234,12291.706Zm12.87,4.767-5.11-8.278h3.425l3.17,5.484,3.226-5.484h3.314l-5.1,8.222v5.439H3366.1Zm20.3,5.588a8.41,8.41,0,0,1-2.982-.548,7.778,7.778,0,0,1-2.661-1.642l1.729-2.133a8.3,8.3,0,0,0,1.874,1.209,4.719,4.719,0,0,0,2.1.456,2.466,2.466,0,0,0,1.407-.342,1.077,1.077,0,0,0,.51-.946v-.046a1.09,1.09,0,0,0-.111-.514,1.021,1.021,0,0,0-.4-.422,4.144,4.144,0,0,0-.82-.388,10.79,10.79,0,0,0-1.353-.41,16.934,16.934,0,0,1-1.829-.57,5.176,5.176,0,0,1-1.4-.775,2.937,2.937,0,0,1-.876-1.141,4.015,4.015,0,0,1-.322-1.7v-.034a4.124,4.124,0,0,1,.344-1.688,3.776,3.776,0,0,1,.953-1.3,4.17,4.17,0,0,1,1.463-.844,5.747,5.747,0,0,1,1.874-.285,7.751,7.751,0,0,1,2.682.445,7.531,7.531,0,0,1,2.25,1.288l-1.519,2.27a9.072,9.072,0,0,0-1.74-.992,4.426,4.426,0,0,0-1.707-.365,2.027,2.027,0,0,0-1.286.343,1.037,1.037,0,0,0-.421.854v.034a1.182,1.182,0,0,0,.122.582,1.113,1.113,0,0,0,.443.434,3.78,3.78,0,0,0,.887.376c.377.114.843.251,1.419.41a13.314,13.314,0,0,1,1.8.616,4.944,4.944,0,0,1,1.33.821,3.054,3.054,0,0,1,.82,1.117,3.859,3.859,0,0,1,.277,1.551v.034a4.411,4.411,0,0,1-.355,1.8,3.829,3.829,0,0,1-1,1.334,4.681,4.681,0,0,1-1.541.821A6.581,6.581,0,0,1,3386.4,12302.061Zm10.5-11.1h-4.046v-2.771h11.007v2.771h-4.046v10.891H3396.9Zm15.064.741c-1.917,4.813-2.228,5.622-4.024,10.149h-2.982l5.7-13.764h2.694l5.7,13.764h-3.06C3414.146,12297.2,3413.913,12296.609,3411.962,12291.706Zm12.227-.741h-4.046v-2.771h11.018v2.771h-4.046v10.891h-2.926Zm13.956,11.1a8.413,8.413,0,0,1-2.982-.548,7.777,7.777,0,0,1-2.66-1.642l1.729-2.133a8.3,8.3,0,0,0,1.874,1.209,4.717,4.717,0,0,0,2.095.456,2.467,2.467,0,0,0,1.408-.342,1.077,1.077,0,0,0,.51-.946v-.046a1.087,1.087,0,0,0-.111-.514,1.02,1.02,0,0,0-.4-.422,4.015,4.015,0,0,0-.809-.388,11.645,11.645,0,0,0-1.364-.41,16.929,16.929,0,0,1-1.829-.57,4.945,4.945,0,0,1-1.385-.775,2.966,2.966,0,0,1-.887-1.141,4.019,4.019,0,0,1-.322-1.7v-.034a4.124,4.124,0,0,1,.344-1.688,3.919,3.919,0,0,1,.953-1.3,4.268,4.268,0,0,1,1.463-.844,5.792,5.792,0,0,1,1.873-.285,7.863,7.863,0,0,1,2.694.445,7.619,7.619,0,0,1,2.239,1.288l-1.519,2.27a9.08,9.08,0,0,0-1.74-.992,4.385,4.385,0,0,0-1.707-.365,2.026,2.026,0,0,0-1.286.343,1.067,1.067,0,0,0-.421.854v.034a1.182,1.182,0,0,0,.122.582,1.112,1.112,0,0,0,.443.434,3.782,3.782,0,0,0,.887.376c.377.114.842.251,1.419.41a12.8,12.8,0,0,1,1.8.616,4.779,4.779,0,0,1,1.33.821,3.054,3.054,0,0,1,.82,1.117,3.859,3.859,0,0,1,.277,1.551v.034a4.415,4.415,0,0,1-.354,1.8,3.829,3.829,0,0,1-1,1.334,4.738,4.738,0,0,1-1.53.821A6.716,6.716,0,0,1,3438.145,12302.061Z" transform="translate(-3283 -12235.074)" fill="#1a1a1a" fill-rule="evenodd"/><path d="M11981.224,8141.64l2.7.89,1.882-1.6-3.444-.239Zm3.341,1.106-2.292,1.961-2.76-.148-.513.41,2.588,1.608c.89.559,4.117-1.893,4.813-2.44l.844,5.211,1.106-.912.535-6.443,2.406-1.984a2.161,2.161,0,0,0,.6-1.289l-.068-.24c-.331-.616-1.813-.4-2.6.274l-2.6,2.224Z" transform="translate(-11882.84 -8130.591)" fill="#2491eb" fill-rule="evenodd"/><path d="M7938.13,8969.685v-4.721a28.773,28.773,0,0,0,8.165-.147v4.868Zm37.414-17.663a16.283,16.283,0,0,0,2.862-3.021c-.912.559-1.825,1.095-2.714,1.607-.126.08-.24.148-.354.217-12.852,7.914-28.075,13.707-43.047,9.818-.764-.205-1.528-.422-2.292-.673a23.126,23.126,0,0,0,45.783-4.63A22.736,22.736,0,0,0,7975.544,8952.021Zm-16.683,9.521a58.921,58.921,0,0,0,8.165-3.99v12.132h-8.165Zm-10.365,2.885a37.71,37.71,0,0,0,8.164-2.029v7.286H7948.5Z" transform="translate(-7879.104 -8933.043)" fill="#104378" fill-rule="evenodd"/><path d="M7898.586,7503.771v-3.227h8.165v5.074c.73-.068,1.46-.16,2.2-.273v-11.882h8.165v9.875c.73-.228,1.471-.479,2.2-.73V7486.78h8.165v12.384q2.959-1.488,6.009-3.318c.616-.365,1.231-.729,1.848-1.117-.171-.6-.365-1.209-.593-1.791a23.121,23.121,0,0,0-44.746,8.176v.593c.023.673.068,1.334.137,2,1.015.354,2.041.673,3.079.935a36.8,36.8,0,0,0,5.371.98v-1.847Z" transform="translate(-7839.489 -7478)" fill="#2491eb" fill-rule="evenodd"/></g></g></svg>